<svg xmlns="http://www.w3.org/2000/svg" xmlns:xlink="http://www.w3.org/1999/xlink" width="2000" zoomAndPan="magnify" viewBox="0 0 1500 1499.999933" height="2000" preserveAspectRatio="xMidYMid meet" version="1.0"><defs><g/><clipPath id="e3b65438d6"><path d="M 750 0 C 335.785156 0 0 335.785156 0 750 C 0 1164.214844 335.785156 1500 750 1500 C 1164.214844 1500 1500 1164.214844 1500 750 C 1500 335.785156 1164.214844 0 750 0 Z M 750 0 " clip-rule="nonzero"/></clipPath><clipPath id="865cd9cac0"><path d="M 0 0 L 1500 0 L 1500 1500 L 0 1500 Z M 0 0 " clip-rule="nonzero"/></clipPath><clipPath id="6f8e55240f"><path d="M 750 0 C 335.785156 0 0 335.785156 0 750 C 0 1164.214844 335.785156 1500 750 1500 C 1164.214844 1500 1500 1164.214844 1500 750 C 1500 335.785156 1164.214844 0 750 0 Z M 750 0 " clip-rule="nonzero"/></clipPath><clipPath id="948663ea5c"><rect x="0" width="1500" y="0" height="1500"/></clipPath><clipPath id="44bbbb9e14"><rect x="0" width="924" y="0" height="638"/></clipPath></defs><g clip-path="url(#e3b65438d6)"><g transform="matrix(1, 0, 0, 1, 0, 0.000000000000112861)"><g clip-path="url(#948663ea5c)"><g clip-path="url(#865cd9cac0)"><g clip-path="url(#6f8e55240f)"><rect x="-330" width="2160" fill="#ffffff" height="2159.999904" y="-329.999985" fill-opacity="1"/></g></g></g></g></g><g transform="matrix(1, 0, 0, 1, 291, 431)"><g clip-path="url(#44bbbb9e14)"><g fill="#000000" fill-opacity="1"><g transform="translate(0.967069, 509.815894)"><g><path d="M 22.390625 0 L 122.125 -366.375 L 186.234375 -366.375 L 282.921875 0 L 234.0625 0 L 208.625 -103.296875 L 96.171875 -103.296875 L 70.21875 0 Z M 105.84375 -141.453125 L 199.46875 -141.453125 L 163.84375 -286.484375 C 162.144531 -293.609375 160.617188 -300.132812 159.265625 -306.0625 C 157.910156 -312 156.894531 -317.34375 156.21875 -322.09375 C 155.539062 -327.1875 154.859375 -331.769531 154.171875 -335.84375 L 152.140625 -335.84375 C 151.460938 -331.769531 150.613281 -327.1875 149.59375 -322.09375 C 148.914062 -317.34375 147.898438 -312 146.546875 -306.0625 C 145.191406 -300.132812 143.664062 -293.609375 141.96875 -286.484375 Z M 105.84375 -141.453125 "/></g></g></g><g fill="#000000" fill-opacity="1"><g transform="translate(306.273316, 509.815894)"><g><path d="M 129.75 -422.34375 L 175.546875 -422.34375 L 175.546875 55.96875 L 129.75 55.96875 Z M 129.75 -422.34375 "/></g></g></g><g fill="#000000" fill-opacity="1"><g transform="translate(611.579563, 509.815894)"><g><path d="M 162.828125 -366.375 C 179.453125 -366.375 194.546875 -363.828125 208.109375 -358.734375 C 221.679688 -353.648438 233.300781 -346.359375 242.96875 -336.859375 C 252.632812 -327.359375 260.097656 -316.078125 265.359375 -303.015625 C 270.617188 -289.953125 273.25 -275.453125 273.25 -259.515625 C 273.25 -234.066406 266.71875 -212.4375 253.65625 -194.625 C 240.59375 -176.820312 222.867188 -164.523438 200.484375 -157.734375 L 278.34375 0 L 224.40625 0 L 153.15625 -152.65625 L 91.59375 -152.65625 L 91.59375 0 L 45.796875 0 L 45.796875 -366.375 Z M 91.59375 -193.359375 L 162.828125 -193.359375 C 182.160156 -193.359375 197.507812 -199.378906 208.875 -211.421875 C 220.238281 -223.460938 225.921875 -239.492188 225.921875 -259.515625 C 225.921875 -279.523438 220.15625 -295.550781 208.625 -307.59375 C 197.09375 -319.632812 181.828125 -325.65625 162.828125 -325.65625 L 91.59375 -325.65625 Z M 91.59375 -193.359375 "/></g></g></g></g></g></svg>